<?xml version="1.0" standalone="no"?>
<!DOCTYPE svg PUBLIC "-//W3C//DTD SVG 1.1//EN" "http://www.w3.org/Graphics/SVG/1.1/DTD/svg11.dtd" >
<svg xmlns="http://www.w3.org/2000/svg">
<metadata>Generated by IcoMoon</metadata>
<defs>
<font id="icomoon" horiz-adv-x="1024">
<font-face units-per-em="1024" ascent="960" descent="-64" />
<missing-glyph horiz-adv-x="1024" />
<glyph unicode="&#x20;" horiz-adv-x="512" d="" />
<glyph unicode="&#xe900;" glyph-name="earth" d="M192 432c0 185.571 150.429 336 336 336s336-150.429 336-336c0-185.571-150.429-336-336-336s-336 150.429-336 336zM528 736c-167.901 0-304-136.099-304-304s136.099-304 304-304c167.901 0 304 136.099 304 304s-136.099 304-304 304zM192 418.086c0 8.838 7.164 16 16 16h640c8.835 0 16-7.162 16-16 0-8.835-7.165-16-16-16h-640c-8.836 0-16 7.165-16 16zM467.517 737.719c16.819 18.18 37.245 30.281 60.483 30.281s43.664-12.1 60.483-30.281c16.803-18.162 31.2-43.565 42.957-73.612 23.555-60.193 37.776-142.26 37.776-232.107s-14.221-171.914-37.776-232.106c-11.757-30.048-26.154-55.453-42.957-73.613-16.819-18.182-37.245-30.282-60.483-30.282s-43.664 12.099-60.483 30.282c-16.803 18.16-31.2 43.565-42.957 73.613-23.555 60.192-37.776 142.259-37.776 232.106s14.221 171.914 37.776 232.107c11.757 30.047 26.154 55.451 42.957 73.612zM454.358 652.445c-21.766-55.623-35.574-133.556-35.574-220.445s13.808-164.822 35.574-220.445c10.902-27.862 23.488-49.322 36.646-63.542 13.142-14.205 25.658-20.013 36.995-20.013s23.853 5.808 36.995 20.013c13.158 14.221 25.744 35.68 36.646 63.542 21.766 55.622 35.574 133.555 35.574 220.445s-13.808 164.822-35.574 220.445c-10.902 27.861-23.488 49.32-36.646 63.542-13.142 14.204-25.658 20.012-36.995 20.012s-23.853-5.808-36.995-20.012c-13.158-14.223-25.744-35.682-36.646-63.542zM308.121 652.138c6.32 6.176 16.449 6.060 22.625-0.259 25.904-26.503 56.666-47.501 90.509-61.809s70.112-21.642 106.723-21.594h0.045c36.611-0.048 72.88 7.286 106.723 21.594s64.605 35.306 90.509 61.809c6.176 6.319 16.304 6.436 22.624 0.259s6.435-16.308 0.259-22.625c-28.848-29.52-63.146-52.947-100.934-68.918-37.779-15.971-78.291-24.17-119.203-24.118-40.912-0.051-81.424 8.147-119.203 24.118-37.789 15.971-72.086 39.398-100.935 68.918-6.176 6.317-6.060 16.448 0.259 22.625zM408.797 303.405c37.779 15.971 78.291 24.17 119.203 24.118 40.912 0.051 81.424-8.147 119.203-24.118 37.789-15.971 72.086-39.398 100.934-68.918 6.176-6.317 6.061-16.448-0.259-22.624s-16.448-6.061-22.624 0.259c-25.904 26.502-56.666 47.501-90.509 61.808s-70.112 21.642-106.723 21.594h-0.045c-36.611 0.048-72.88-7.286-106.723-21.594s-64.605-35.306-90.509-61.808c-6.176-6.32-16.305-6.435-22.625-0.259s-6.436 16.307-0.259 22.624c28.849 29.52 63.146 52.947 100.935 68.918z" />
<glyph unicode="&#xe901;" glyph-name="arrow-down" d="M504 696c8.835 0 16-7.164 16-16v-393.373l180.685 180.688c6.25 6.246 16.381 6.246 22.63 0 6.246-6.25 6.246-16.381 0-22.63l-208-208c-3.002-2.998-7.072-4.685-11.315-4.685s-8.314 1.686-11.315 4.685l-207.998 208c-6.249 6.25-6.249 16.381 0 22.63 6.248 6.246 16.379 6.246 22.627 0l180.686-180.688v393.373c0 8.836 7.165 16 16 16z" />
<glyph unicode="&#xe902;" glyph-name="arrow-left" d="M507.315 683.314c6.246-6.248 6.246-16.379 0-22.627l-180.688-180.686h393.373c8.835 0 16-7.165 16-16s-7.165-16-16-16h-393.373l180.688-180.685c6.246-6.25 6.246-16.381 0-22.63-6.25-6.246-16.381-6.246-22.63 0l-207.998 208c-6.249 6.25-6.249 16.381 0 22.63l207.998 207.998c6.25 6.249 16.381 6.249 22.63 0z" />
<glyph unicode="&#xe903;" glyph-name="arrow-right-up" d="M346.579 616.733c0 8.838 7.165 16 16 16h294.157c4.243 0 8.314-1.683 11.312-4.685 3.002-3.002 4.688-7.069 4.688-11.315v-294.154c0-8.838-7.165-16-16-16s-16 7.162-16 16v278.154h-278.157c-8.835 0-16 7.165-16 16zM656.736 616.733c6.25-6.246 6.25-16.378 0-22.627l-294.157-294.154c-6.25-6.25-16.378-6.25-22.627 0-6.25 6.246-6.25 16.378 0 22.627l294.157 294.154c6.246 6.25 16.378 6.25 22.627 0z" />
<glyph unicode="&#xe904;" glyph-name="arrow-right" d="M500.685 683.314c6.25 6.249 16.381 6.249 22.63 0l208-207.998c6.246-6.25 6.246-16.381 0-22.63l-208-208c-6.25-6.246-16.381-6.246-22.63 0-6.246 6.25-6.246 16.381 0 22.63l180.688 180.685h-393.373c-8.836 0-16 7.165-16 16s7.164 16 16 16h393.373l-180.688 180.686c-6.246 6.248-6.246 16.379 0 22.627z" />
<glyph unicode="&#xe905;" glyph-name="arrow-up" d="M284.686 460.685c-6.249 6.25-6.249 16.381 0 22.63l207.998 207.998c3.002 3.001 7.072 4.686 11.315 4.686s8.314-1.686 11.315-4.686l208-207.998c6.246-6.25 6.246-16.381 0-22.63-6.25-6.246-16.381-6.246-22.63 0l-196.685 196.688-196.686-196.688c-6.248-6.246-16.379-6.246-22.627 0zM504 680c8.835 0 16-7.164 16-16v-416c0-8.835-7.165-16-16-16s-16 7.165-16 16v416c0 8.836 7.165 16 16 16z" />
<glyph unicode="&#xe906;" glyph-name="burger" d="M919.29 608h-814.579v32h814.579v-32zM919.286 416h-814.58v32h814.58v-32zM576 224h-480v32h480v-32z" />
<glyph unicode="&#xe907;" glyph-name="calendar" d="M256 720h544c35.347 0 64-28.654 64-64v-480c0-35.347-28.653-64-64-64h-544c-35.346 0-64 28.653-64 64v480c0 35.346 28.654 64 64 64zM256 688c-17.673 0-32-14.327-32-32v-480c0-17.674 14.327-32 32-32h544c17.674 0 32 14.326 32 32v480c0 17.673-14.326 32-32 32h-544zM320 800c8.835 0 16-7.164 16-16v-160c0-8.835-7.165-16-16-16-8.836 0-16 7.165-16 16v160c0 8.836 7.164 16 16 16zM736 800c8.835 0 16-7.164 16-16v-160c0-8.835-7.165-16-16-16s-16 7.165-16 16v160c0 8.836 7.165 16 16 16zM864 528h-672v32h672v-32z" />
<glyph unicode="&#xe908;" glyph-name="check" d="M758.49 635.315c6.25-6.25 6.25-16.381 0-22.63l-328.099-328.096-169.704 169.706c-6.249 6.25-6.249 16.378 0 22.627s16.379 6.25 22.627 0l147.077-147.078 305.472 305.472c6.25 6.247 16.378 6.247 22.627 0z" />
<glyph unicode="&#xe909;" glyph-name="chevron-down" d="M739.315 579.315c6.246-6.25 6.246-16.381 0-22.63l-208-208c-3.002-2.998-7.072-4.685-11.315-4.685s-8.314 1.686-11.315 4.685l-207.998 208c-6.249 6.25-6.249 16.381 0 22.63 6.248 6.246 16.379 6.246 22.629 0l196.685-196.688 196.685 196.688c6.25 6.246 16.381 6.246 22.63 0z" />
<glyph unicode="&#xe90a;" glyph-name="chevron-left" d="M635.315 244.685c-6.25-6.246-16.381-6.246-22.63 0l-208 208c-2.998 3.002-4.685 7.072-4.685 11.315s1.686 8.314 4.685 11.315l208 207.998c6.25 6.249 16.381 6.249 22.63 0 6.246-6.248 6.246-16.379 0-22.627l-196.688-196.686 196.688-196.685c6.246-6.25 6.246-16.381 0-22.63z" />
<glyph unicode="&#xe90b;" glyph-name="chevron-right" d="M404.685 683.314c6.25 6.249 16.381 6.249 22.63 0l208-207.998c2.998-3.002 4.685-7.072 4.685-11.315s-1.686-8.314-4.685-11.315l-208-208c-6.25-6.246-16.381-6.246-22.63 0-6.246 6.25-6.246 16.381 0 22.63l196.688 196.685-196.688 196.686c-6.246 6.248-6.246 16.379 0 22.627z" />
<glyph unicode="&#xe90c;" glyph-name="chevron-up" d="M300.686 348.685c-6.249 6.25-6.249 16.381 0 22.63l207.998 208c3.002 2.998 7.072 4.685 11.315 4.685s8.314-1.686 11.315-4.685l208-208c6.246-6.25 6.246-16.381 0-22.63-6.25-6.246-16.381-6.246-22.63 0l-196.685 196.688-196.685-196.688c-6.25-6.246-16.38-6.246-22.629 0z" />
<glyph unicode="&#xe90d;" glyph-name="chevron" d="M404.685 683.314c6.25 6.249 16.381 6.249 22.63 0l208-207.998c2.998-3.002 4.685-7.072 4.685-11.315s-1.686-8.314-4.685-11.315l-208-208c-6.25-6.246-16.381-6.246-22.63 0-6.246 6.25-6.246 16.381 0 22.63l196.688 196.685-196.688 196.686c-6.246 6.248-6.246 16.379 0 22.627z" />
<glyph unicode="&#xe90e;" glyph-name="cross" d="M696.096 603.315c6.25-6.25 6.25-16.381 0-22.63l-147.078-147.078 148.688-148.685c6.25-6.25 6.25-16.378 0-22.627s-16.378-6.25-22.627 0l-148.688 148.685-147.075-147.075c-6.25-6.25-16.381-6.25-22.63 0-6.246 6.246-6.246 16.378 0 22.627l147.078 147.075-145.469 145.472c-6.25 6.246-6.25 16.378 0 22.627s16.378 6.25 22.627 0l145.469-145.469 147.078 147.078c6.25 6.246 16.381 6.246 22.627 0z" />
<glyph unicode="&#xe90f;" glyph-name="doctor" d="M434.257 449.818c23.292-9.651 48.26-14.618 73.472-14.618 50.923 0 99.759 20.228 135.765 56.235s56.235 84.844 56.235 135.766c0 50.922-20.228 99.758-56.235 135.764s-84.843 56.236-135.765 56.236c-25.212 0-50.18-4.966-73.472-14.615-23.296-9.649-44.463-23.791-62.291-41.62s-31.972-38.995-41.62-62.289c-9.649-23.295-14.615-48.262-14.615-73.475s4.966-50.181 14.615-73.475c9.649-23.293 23.791-44.46 41.62-62.291 17.829-17.826 38.995-31.97 62.291-41.617zM166.396 85.333h682.667v85.333c0 56.58-22.477 110.844-62.485 150.848-30.835 30.839-70.14 51.26-112.448 59.004v-87.45c19.217-4.066 35.682-17.178 47.582-35.767 14.43-22.549 22.818-53.909 22.818-90.901 0-29.065-24.201-41.643-35.294-44.416l-6.208 24.836c2.355 0.589 6.669 2.47 10.189 5.888 3.238 3.14 5.713 7.42 5.713 13.692 0 33.408-7.612 59.648-18.782 77.099-11.132 17.399-25.122 25.301-38.818 25.301s-27.682-7.902-38.818-25.301c-11.17-17.451-18.782-43.691-18.782-77.099 0-6.272 2.475-10.551 5.713-13.692 3.52-3.418 7.834-5.299 10.193-5.888l-6.208-24.836c-11.093 2.773-35.298 15.351-35.298 44.416 0 36.992 8.388 68.352 22.818 90.901 11.9 18.59 28.365 31.701 47.582 35.767v90.547c-4.25 0.256-8.516 0.384-12.8 0.384h-255.999v-77.862c36.323-6.093 63.999-37.683 63.999-75.738 0-42.415-34.383-76.8-76.799-76.8s-76.8 34.385-76.8 76.8c0 38.054 27.677 69.645 64 75.738v76.322c-47.148-5.696-91.324-27.017-125.251-60.945-40.008-40.004-62.484-94.268-62.484-150.848v-85.333zM315.73 230.4c0 28.279 22.923 51.2 51.2 51.2s51.2-22.921 51.2-51.2c0-28.275-22.923-51.2-51.2-51.2s-51.2 22.925-51.2 51.2z" />
<glyph unicode="&#xe910;" glyph-name="email" d="M800 608v-352h-544v352h544zM256 640c-17.673 0-32-14.326-32-32v-352c0-17.674 14.327-32 32-32h544c17.674 0 32 14.326 32 32v352c0 17.674-14.326 32-32 32h-544zM822.048 538.912l-205.555-128.47c-44.432-27.773-100.448-29.216-146.253-3.766l-235.997 131.107 15.54 27.974 235.999-131.11c35.626-19.792 79.19-18.669 113.75 2.931l205.555 128.47 16.96-27.136z" />
<glyph unicode="&#xe911;" glyph-name="facebook" d="M672 832v-126.172h-64c-22.080 0-32-25.55-32-47.314v-78.857h96v-126.173h-96v-357.485h-128v357.485h-96v126.173h96v126.171c0 33.463 13.485 65.555 37.491 89.217 24.003 23.662 56.56 36.955 90.509 36.955h96z" />
<glyph unicode="&#xe912;" glyph-name="fax" d="M169.228 534.179c-5.096 0-9.228-4.131-9.228-9.226v-277.504c0-5.094 4.131-9.226 9.228-9.226h88.296v-32h-88.296c-22.769 0-41.228 18.458-41.228 41.226v277.504c0 22.768 18.458 41.226 41.228 41.226h479.32v-32h-479.32zM270.134 449.27c0-13.933-11.294-25.229-25.227-25.229s-25.228 11.296-25.228 25.229c0 13.933 11.295 25.229 25.228 25.229s25.227-11.296 25.227-25.229zM228.906 726.772c0 22.769 18.458 41.228 41.228 41.228h353.185c22.768 0 41.226-18.458 41.226-41.228v-75.682h-32v75.682c0 5.096-4.131 9.228-9.226 9.228h-353.185c-5.096 0-9.228-4.131-9.228-9.228v-176.593h-32v176.593zM651.437 221.731l37.421 104.454c0.144 0.314 0.355 0.595 0.618 0.822 0.192 0.166 0.406 0.301 0.637 0.397l87.958 8.787 6.445 19.904c13.53 41.789 12.656 97.338-2.243 138.384l-7.126 19.632-88.829 5.878c-0.221 0.090-0.426 0.208-0.614 0.358-0.31 0.25-0.554 0.573-0.707 0.941l-2.307 5.443-39.478 97.757c-0.202 0.48-0.246 1.011-0.118 1.517 0.122 0.48 0.387 0.915 0.762 1.238 16.854 13.412 38.006 20.258 59.526 19.262 21.6-0.998 42.096-9.826 57.664-24.83l0.038-0.042c110.416-106.058 113.962-282.253 7.904-392.669l-0.042-0.042c-14.95-15.619-35.075-25.264-56.614-27.13-21.466-1.859-42.877 4.131-60.259 16.854-0.39 0.31-0.675 0.733-0.813 1.21-0.147 0.499-0.128 1.034 0.051 1.52l0.128 0.352zM632.925 193.011c23.674-17.424 52.88-25.635 82.166-23.098s56.646 15.651 76.973 36.886c118.301 123.158 114.346 319.613-8.813 437.914-21.165 20.401-49.030 32.401-78.394 33.759s-58.218-8.020-81.171-26.382c-5.754-4.692-9.837-11.118-11.638-18.322s-1.226-14.794 1.642-21.642l41.654-103.149 0.189-0.179c2.211-5.222 5.683-9.818 10.102-13.376 4.419-3.555 9.648-5.968 15.222-7.014 0.688-0.125 1.36-0.202 2.045-0.262l69.29-4.586c12.448-34.294 13.235-82.531 1.878-117.606l-68.451-6.838c-0.666-0.074-1.331-0.182-1.984-0.33-5.587-1.235-10.778-3.84-15.104-7.584s-7.651-8.509-9.67-13.862l-0.102-0.291-37.446-104.525c-2.586-6.957-2.851-14.566-0.758-21.686s6.432-13.376 12.371-17.827zM228.906 339.133h432.252v-32h-400.252v-169.821h371.638v59.683h32v-91.683h-435.638v233.821z" />
<glyph unicode="&#xe913;" glyph-name="in-stock" d="M356.685 473.677c6.25 6.25 16.381 6.25 22.63 0l79.83-79.834 305.472 305.47c6.246 6.249 16.378 6.249 22.627 0s6.25-16.379 0-22.627l-316.784-316.782c-3.002-3.002-7.069-4.688-11.315-4.688-4.243 0-8.31 1.686-11.312 4.688l-91.149 91.146c-6.246 6.25-6.246 16.381 0 22.627zM496 243.149c-114.877 0-208 93.126-208 208 0 114.877 93.123 208.001 208 208.001s208-93.124 208-208.001c0-114.874-93.123-208-208-208zM496 211.149c132.547 0 240 107.453 240 240 0 132.55-107.453 240.001-240 240.001s-240-107.45-240-240.001c0-132.547 107.453-240 240-240z" />
<glyph unicode="&#xe914;" glyph-name="instagram" d="M373.44 800h309.12c117.76 0 213.44-95.68 213.44-213.44v-309.12c0-56.608-22.486-110.896-62.515-150.925s-94.317-62.515-150.925-62.515h-309.12c-117.76 0-213.44 95.68-213.44 213.44v309.12c0 56.608 22.487 110.897 62.515 150.925s94.317 62.515 150.925 62.515zM366.080 726.4c-35.136 0-68.833-13.958-93.677-38.803s-38.803-58.541-38.803-93.677v-323.84c0-73.232 59.248-132.48 132.48-132.48h323.84c35.136 0 68.832 13.958 93.677 38.803s38.803 58.541 38.803 93.677v323.84c0 73.232-59.248 132.48-132.48 132.48h-323.84zM721.2 671.2c12.198 0 23.901-4.846 32.528-13.473s13.472-20.329 13.472-32.527c0-12.198-4.845-23.901-13.472-32.528-8.627-8.624-20.33-13.472-32.528-13.472s-23.901 4.848-32.528 13.472c-8.627 8.627-13.472 20.33-13.472 32.528s4.845 23.9 13.472 32.527c8.627 8.627 20.33 13.473 32.528 13.473zM528 616c48.8 0 95.6-19.386 130.109-53.891 34.506-34.509 53.891-81.309 53.891-130.109s-19.386-95.6-53.891-130.109c-34.509-34.506-81.309-53.891-130.109-53.891s-95.6 19.386-130.109 53.891c-34.506 34.509-53.891 81.309-53.891 130.109s19.386 95.6 53.891 130.109c34.509 34.506 81.309 53.891 130.109 53.891zM528 542.4c-29.28 0-57.36-11.632-78.064-32.336s-32.336-48.784-32.336-78.064c0-29.28 11.632-57.36 32.336-78.064s48.784-32.336 78.064-32.336c29.28 0 57.36 11.632 78.064 32.336s32.336 48.784 32.336 78.064c0 29.28-11.632 57.36-32.336 78.064s-48.784 32.336-78.064 32.336z" />
<glyph unicode="&#xe915;" glyph-name="linkedin" d="M319.793 581.36h-150.996v-453.36h150.996v453.36zM244.228 643.242h-0.834c-50.61 0-83.395 34.922-83.395 78.379 0 44.498 33.775 78.379 85.323 78.379s83.394-33.881 84.386-78.379c-0.106-43.457-32.837-78.379-85.48-78.379zM863.997 128.006h-151.155v242.528c0 60.944-21.837 102.579-76.512 102.579-41.699 0-66.509-28.154-77.402-55.165-3.971-11.846-5.738-24.317-5.213-36.797v-253.146h-151.152c0 0 1.926 410.842 0 453.36h151.152v-64.221c20.118 31.226 55.926 74.838 136.038 74.838 99.030 0 173.824-64.742 173.824-204.016l0.419-259.962z" />
<glyph unicode="&#xe916;" glyph-name="minus" d="M288 432c0 8.835 7.164 16 16 16h448c8.835 0 16-7.165 16-16s-7.165-16-16-16h-448c-8.836 0-16 7.165-16 16z" />
<glyph unicode="&#xe917;" glyph-name="phone" d="M788.102 308.528l-151.008 67.667c-2.842 1.152-5.917 1.606-8.973 1.325-3.104-0.288-6.090-1.325-8.701-3.021l-93.395-79.622-18.819 9.142c-55.69 27.050-111.846 82.736-138.989 137.888l-9.222 18.739 79.632 94.691c0.006 0.010-0.003-0.006 0 0 1.632 2.586 2.64 5.546 2.909 8.595 0.275 3.152-0.23 6.326-1.478 9.235l-2.582 6.032v0.099l-65.11 145.134c-1.645 3.801-4.477 6.968-8.070 9.027-3.558 2.039-7.677 2.884-11.75 2.412-35.586-4.726-68.244-22.223-91.892-49.236-23.687-27.058-36.716-61.814-36.651-97.776v-0.058c0-236.406 192.393-428.803 428.803-428.803h0.058c35.962-0.064 70.717 12.963 97.773 36.653 27.014 23.648 44.512 56.31 49.238 91.898 0.474 4.074-0.371 8.189-2.406 11.75-2.058 3.594-5.222 6.426-9.021 8.077l-0.342 0.15zM831.622 284.547c-5.709-43.363-27.002-83.165-59.91-111.971-32.906-28.81-75.174-44.653-118.909-44.576-254.080 0-460.803 206.723-460.803 460.803-0.078 43.738 15.766 86.005 44.574 118.912s68.61 54.202 111.97 59.908c10.966 1.339 22.070-0.904 31.654-6.395 9.587-5.491 17.139-13.934 21.533-24.069l67.744-151.011v-0.384c3.322-7.757 4.675-16.218 3.939-24.624-0.739-8.41-3.542-16.506-8.163-23.568-0.576-0.864-1.184-1.664-1.824-2.464l-66.496-79.072c23.968-48.704 74.912-99.264 124.256-123.232l77.888 66.4c0.765 0.643 1.565 1.242 2.4 1.792 7.082 4.723 15.229 7.606 23.706 8.387 8.474 0.784 17.011-0.56 24.838-3.907l0.416-0.192 150.752-67.552c10.131-4.4 18.566-11.952 24.051-21.539 5.485-9.584 7.725-20.685 6.384-31.645z" />
<glyph unicode="&#xe918;" glyph-name="pin" d="M710.15 508.925c0 107.738-87.338 195.075-195.075 195.075s-195.075-87.338-195.075-195.075c0-138.573 124.579-277.142 174.627-327.219 11.466-11.475 29.43-11.475 40.896 0 50.048 50.077 174.627 188.646 174.627 327.219zM678.15 508.925c0-60.314-27.411-123.37-63.469-179.501-34.646-53.933-75.162-98.237-99.606-122.902-24.445 24.666-64.96 68.97-99.606 122.902-36.054 56.131-63.469 119.187-63.469 179.501 0 90.064 73.011 163.075 163.075 163.075s163.075-73.011 163.075-163.075zM512 448c35.347 0 64 28.653 64 64s-28.653 64-64 64c-35.347 0-64-28.653-64-64s28.653-64 64-64z" />
<glyph unicode="&#xe919;" glyph-name="plus" d="M528 672c8.835 0 16-7.164 16-16v-208h208c8.835 0 16-7.165 16-16s-7.165-16-16-16h-208v-208c0-8.835-7.165-16-16-16s-16 7.165-16 16v208h-208c-8.836 0-16 7.165-16 16s7.164 16 16 16h208v208c0 8.836 7.165 16 16 16z" />
<glyph unicode="&#xe91a;" glyph-name="search" d="M704 512c0 123.712-100.288 224-224 224s-224-100.288-224-224c0-123.712 100.288-224 224-224s224 100.288 224 224zM631.645 305.725c-42.448-31.254-94.89-49.725-151.645-49.725-141.386 0-256 114.614-256 256s114.614 256 256 256c141.386 0 256-114.615 256-256 0-73.078-30.621-139.002-79.728-185.648l153.434-153.43c6.246-6.25 6.246-16.381 0-22.627-6.25-6.25-16.381-6.25-22.627 0l-155.434 155.43z" />
<glyph unicode="&#xe91b;" glyph-name="tag" d="M476.4 215.267l-188.4 188.4 268.333 268.333 188.477-1.119v-187.201l-268.41-268.413zM556.522 703.999c-8.55 0.051-16.768-3.324-22.816-9.372l-268.333-268.333c-12.497-12.496-12.497-32.758 0-45.254l188.397-188.4c12.499-12.496 32.758-12.496 45.258 0l268.41 268.413c6.003 6 9.373 14.141 9.373 22.627v187.201c0 17.599-14.211 31.895-31.808 32l-188.48 1.119z" />
<glyph unicode="&#xe91c;" glyph-name="twitter" d="M787.408 736l-211.994-242.294 249.392-329.706h-195.299l-152.944 199.965-175.003-199.965h-97.093l226.746 259.162-239.213 312.838h200.198l138.25-182.778 159.866 182.778h97.094zM656.317 222.080h53.77l-347.072 458.891h-57.7l351.002-458.891z" />
<glyph unicode="&#xe91d;" glyph-name="user" d="M849.062 85.333h-682.667v85.333c0 56.58 22.476 110.844 62.484 150.848 40.008 40.009 94.27 62.485 150.849 62.485h256c56.58 0 110.844-22.477 150.848-62.485 40.009-40.004 62.485-94.268 62.485-150.848v-85.333zM434.257 449.818c23.292-9.651 48.26-14.618 73.472-14.618 50.923 0 99.759 20.228 135.765 56.235s56.235 84.844 56.235 135.766c0 50.922-20.228 99.758-56.235 135.764s-84.843 56.236-135.765 56.236c-25.212 0-50.18-4.966-73.472-14.615-23.296-9.649-44.463-23.791-62.291-41.62s-31.972-38.995-41.62-62.289c-9.649-23.295-14.615-48.262-14.615-73.475s4.966-50.181 14.615-73.475c9.649-23.293 23.791-44.46 41.62-62.291 17.829-17.826 38.995-31.97 62.291-41.617z" />
<glyph unicode="&#xe91e;" glyph-name="exit-fullscreen" d="M128 775.432c0 6.628 5.372 12 12 12s12-5.372 12-12v-240.001c0-6.627-5.372-12-12-12s-12 5.373-12 12v240.001zM896 151.43c0-6.627-5.373-12-12-12s-12 5.373-12 12v240c0 6.627 5.373 12 12 12s12-5.373 12-12v-240zM524 787.432c6.627 0 12-5.372 12-12s-5.373-12-12-12h-384c-6.628 0-12 5.372-12 12s5.372 12 12 12h384zM500 139.43c-6.627 0-12 5.373-12 12s5.373 12 12 12h384c6.627 0 12-5.373 12-12s-5.373-12-12-12h-384zM596 481.962c-6.627 0-12 5.373-12 12s5.373 12 12 12h264c6.627 0 12-5.373 12-12s-5.373-12-12-12h-264zM431.418 441.491c6.627 0 12-5.373 12-12s-5.373-12-12-12h-264c-6.628 0-12 5.373-12 12s5.372 12 12 12h264zM584 757.962c0 6.627 5.373 12 12 12s12-5.373 12-12v-264c0-6.627-5.373-12-12-12s-12 5.373-12 12v264zM443.418 165.491c0-6.627-5.373-12-12-12s-12 5.373-12 12v264c0 6.627 5.373 12 12 12s12-5.373 12-12v-264zM615.987 490.448c-4.688-4.688-12.285-4.688-16.973 0-4.685 4.685-4.685 12.282 0 16.97l271.53 271.529c4.688 4.686 12.285 4.686 16.97 0 4.688-4.686 4.688-12.284 0-16.971l-271.526-271.528zM411.43 433.005c4.688 4.688 12.285 4.688 16.973 0 4.685-4.685 4.685-12.285 0-16.97l-271.53-271.53c-4.686-4.685-12.284-4.685-16.971 0-4.686 4.688-4.686 12.285 0 16.97l271.528 271.53z" />
<glyph unicode="&#xe91f;" glyph-name="fullscreen" d="M128 775.432c0 6.628 5.372 12 12 12s12-5.372 12-12v-240.001c0-6.627-5.372-12-12-12s-12 5.373-12 12v240.001zM896 151.43c0-6.627-5.373-12-12-12s-12 5.373-12 12v240c0 6.627 5.373 12 12 12s12-5.373 12-12v-240zM524 787.432c6.627 0 12-5.372 12-12s-5.373-12-12-12h-384c-6.628 0-12 5.372-12 12s5.372 12 12 12h384zM500 139.43c-6.627 0-12 5.373-12 12s5.373 12 12 12h384c6.627 0 12-5.373 12-12s-5.373-12-12-12h-384zM884 787.432c6.627 0 12-5.372 12-12s-5.373-12-12-12h-264c-6.627 0-12 5.372-12 12s5.373 12 12 12h264zM143.41 136.019c-6.628 0-12 5.373-12 12s5.372 12 12 12h264.001c6.627 0 12-5.373 12-12s-5.373-12-12-12h-264.001zM896 511.43c0-6.627-5.373-12-12-12s-12 5.373-12 12v264.001c0 6.627 5.373 12 12 12s12-5.372 12-12v-264.001zM131.41 412.019c0 6.627 5.372 12 12 12s12-5.373 12-12v-264c0-6.627-5.373-12-12-12s-12 5.373-12 12v264zM864.013 778.946c4.685 4.686 12.285 4.686 16.97 0 4.688-4.686 4.688-12.284 0-16.971l-271.53-271.528c-4.685-4.688-12.282-4.688-16.97 0-4.685 4.685-4.685 12.282 0 16.97l271.53 271.529zM163.397 144.506c-4.686-4.685-12.284-4.685-16.971 0s-4.686 12.285 0 16.97l271.528 271.53c4.688 4.688 12.285 4.688 16.973 0 4.685-4.685 4.685-12.285 0-16.97l-271.531-271.53z" />
<glyph unicode="&#xe920;" glyph-name="pause" d="M352 688c0 8.836 7.165 16 16 16s16-7.164 16-16v-512c0-8.835-7.165-16-16-16s-16 7.165-16 16v512zM640 688c0 8.836 7.165 16 16 16s16-7.164 16-16v-512c0-8.835-7.165-16-16-16s-16 7.165-16 16v512z" />
<glyph unicode="&#xe921;" glyph-name="sound" d="M160 553.494c0 17.674 14.327 32 32 32h320c17.674 0 32-14.326 32-32v-192c0-17.674-14.326-32-32-32h-320c-17.673 0-32 14.326-32 32v192zM320 569.027c0 10.333 4.992 20.032 13.402 26.038l160 114.285c21.178 15.129 50.598-0.012 50.598-26.039v-451.635c0-26.029-29.421-41.168-50.598-26.042l-160 114.288c-8.41 6.006-13.402 15.702-13.402 26.038v223.066zM754.093 763.588c5.904 5.904 15.498 5.921 21.2-0.179 36.672-39.236 66.022-84.779 86.605-134.475 22.515-54.352 34.102-112.608 34.102-171.44s-11.587-117.088-34.102-171.443c-20.582-49.693-49.933-95.235-86.605-134.474-5.702-6.099-15.296-6.083-21.2-0.179s-5.882 15.459-0.195 21.571c33.875 36.419 61.002 78.627 80.067 124.653 20.995 50.685 31.798 105.011 31.798 159.872s-10.803 109.184-31.798 159.872c-19.066 46.025-46.192 88.232-80.067 124.65-5.686 6.114-5.709 15.667 0.195 21.571zM663.235 672.73c6.096 6.096 16.013 6.121 21.805-0.265 24.678-27.212 44.512-58.5 58.602-92.513 16.080-38.822 24.358-80.435 24.358-122.458s-8.278-83.635-24.358-122.461c-14.090-34.010-33.923-65.299-58.602-92.512-5.792-6.384-15.709-6.362-21.805-0.266-6.096 6.099-6.061 15.955-0.301 22.371 21.795 24.291 39.344 52.131 51.862 82.355 14.515 35.037 21.984 72.589 21.984 110.512s-7.469 75.475-21.984 110.512c-12.518 30.221-30.067 58.064-51.862 82.355-5.76 6.417-5.795 16.273 0.301 22.369z" />
<glyph unicode="&#xe922;" glyph-name="watch" d="M656 469.389c21.334-12.317 21.334-43.11 0-55.427l-288-166.275c-21.334-12.317-48 3.078-48 27.712v332.554c0 24.634 26.666 40.030 48 27.712l288-166.275z" />
<glyph unicode="&#xe923;" glyph-name="youtube" d="M448 352l166.080 96-166.080 96v-192zM817.92 602.56c4.16-15.040 7.040-35.2 8.96-60.8 2.24-25.6 3.2-47.68 3.2-66.88l1.92-26.88c0-70.080-5.12-121.6-14.080-154.56-8-28.8-26.56-47.36-55.36-55.36-15.040-4.16-42.56-7.040-84.8-8.96-41.6-2.24-79.68-3.2-114.88-3.2l-50.88-1.92c-134.080 0-217.6 5.12-250.56 14.080-28.8 8-47.36 26.56-55.36 55.36-4.16 15.040-7.040 35.2-8.96 60.8-2.24 25.6-3.2 47.68-3.2 66.88l-1.92 26.88c0 70.080 5.12 121.6 14.080 154.56 8 28.8 26.56 47.36 55.36 55.36 15.040 4.16 42.56 7.040 84.8 8.96 41.6 2.24 79.68 3.2 114.88 3.2l50.88 1.92c134.080 0 217.6-5.12 250.56-14.080 28.8-8 47.36-26.56 55.36-55.36z" />
</font>
</defs>
</svg>
